<svg xmlns="http://www.w3.org/2000/svg" viewBox="0 0 600 400" width="600" height="400"><polyline fill="none" stroke="#34d399" stroke-width="6" stroke-linejoin="round" stroke-linecap="round" points="8.0,391.5 10.8,390.9 13.7,387.4 16.5,390.0 19.4,390.3 22.2,389.5 25.1,387.1 27.9,389.0 30.8,391.4 33.6,385.3 36.5,389.1 39.3,390.3 42.2,389.6 45.0,387.9 47.9,391.0 50.7,388.9 53.6,391.7 56.4,391.2 59.3,387.6 62.1,391.0 65.0,387.8 67.8,390.5 70.7,391.4 73.5,389.4 76.4,391.5 79.2,387.1 82.1,391.5 84.9,388.9 87.8,391.4 90.6,390.8 93.5,390.6 96.3,387.4 99.2,391.0 102.0,388.3 104.9,390.4 107.7,391.5 110.6,388.1 113.4,388.0 116.3,391.6 119.1,387.3 122.0,387.8 124.8,389.8 127.6,388.9 130.5,389.5 133.3,388.7 136.2,391.3 139.0,391.1 141.9,383.3 144.7,391.1 147.6,388.7 150.4,388.4 153.3,389.5 156.1,388.5 159.0,391.2 161.8,391.0 164.7,390.5 167.5,389.5 170.4,389.9 173.2,391.4 176.1,391.4 178.9,391.5 181.8,387.8 184.6,388.4 187.5,389.2 190.3,391.2 193.2,385.0 196.0,391.4 198.9,389.9 201.7,389.8 204.6,385.2 207.4,390.6 210.3,388.1 213.1,8.0 216.0,391.5 218.8,252.0 221.7,392.0 224.5,391.2 227.4,388.2 230.2,391.5 233.1,388.5 235.9,390.8 238.8,391.3 241.6,390.7 244.4,389.3 247.3,388.6 250.1,389.4 253.0,391.5 255.8,388.2 258.7,386.6 261.5,387.9 264.4,389.1 267.2,391.0 270.1,391.1 272.9,388.6 275.8,391.9 278.6,391.3 281.5,389.3 284.3,390.6 287.2,388.9 290.0,389.8 292.9,390.9 295.7,389.4 298.6,388.4 301.4,388.9 304.3,390.3 307.1,391.9 310.0,389.7 312.8,391.2 315.7,391.3 318.5,386.9 321.4,387.1 324.2,390.7 327.1,388.0 329.9,391.6 332.8,391.0 335.6,391.2 338.5,389.2 341.3,391.6 344.2,391.1 347.0,389.1 349.9,389.6 352.7,388.1 355.6,389.2 358.4,389.6 361.2,389.4 364.1,388.2 366.9,388.5 369.8,384.5 372.6,389.6 375.5,387.1 378.3,389.9 381.2,391.0 384.0,384.7 386.9,389.4 389.7,390.2 392.6,391.1 395.4,391.2 398.3,390.5 401.1,391.9 404.0,390.8 406.8,389.3 409.7,389.6 412.5,389.4 415.4,389.2 418.2,388.0 421.1,390.7 423.9,390.2 426.8,391.4 429.6,388.7 432.5,388.0 435.3,390.1 438.2,391.3 441.0,388.9 443.9,388.7 446.7,388.9 449.6,390.3 452.4,388.7 455.3,391.3 458.1,388.1 461.0,390.4 463.8,388.4 466.7,390.1 469.5,391.5 472.4,389.4 475.2,389.7 478.0,389.2 480.9,388.7 483.7,387.7 486.6,386.7 489.4,391.4 492.3,385.7 495.1,390.5 498.0,390.0 500.8,391.7 503.7,389.2 506.5,389.8 509.4,388.7 512.2,389.8 515.1,389.3 517.9,389.6 520.8,388.4 523.6,390.2 526.5,389.6 529.3,390.1 532.2,391.3 535.0,389.2 537.9,388.4 540.7,390.1 543.6,388.9 546.4,387.9 549.3,389.6 552.1,388.4 555.0,389.1 557.8,384.2 560.7,390.7 563.5,391.7 566.4,385.9 569.2,389.4 572.1,390.7 574.9,391.0 577.8,391.2 580.6,386.1 583.5,389.7 586.3,390.8 589.2,390.3 592.0,388.8"/></svg>
