<svg xmlns="http://www.w3.org/2000/svg" viewBox="0 0 600 400" width="600" height="400"><polyline fill="none" stroke="#34d399" stroke-width="6" stroke-linejoin="round" stroke-linecap="round" points="8.0,381.4 28.1,345.1 48.3,132.0 68.4,290.7 88.6,308.9 108.7,257.4 128.8,116.9 149.0,228.7 169.1,376.9 189.2,8.0 209.4,233.3 229.5,308.9 249.7,266.5 269.8,163.7 289.9,348.2 310.1,225.7 330.2,392.0 350.3,360.3 370.5,144.1 390.6,349.7 410.8,157.7 430.9,317.9 451.0,373.9 471.2,255.9 491.3,378.4 511.4,113.8 531.6,381.4 551.7,221.2 571.9,376.9 592.0,340.6"/></svg>
