<svg xmlns="http://www.w3.org/2000/svg" viewBox="0 0 600 400" width="600" height="400"><polyline fill="none" stroke="#34d399" stroke-width="6" stroke-linejoin="round" stroke-linecap="round" points="8.0,381.4 28.9,345.1 49.7,132.0 70.6,290.7 91.4,308.9 112.3,257.4 133.1,116.9 154.0,228.7 174.9,376.9 195.7,8.0 216.6,233.3 237.4,308.9 258.3,266.5 279.1,163.7 300.0,348.2 320.9,225.7 341.7,392.0 362.6,360.3 383.4,144.1 404.3,349.7 425.1,157.7 446.0,317.9 466.9,373.9 487.7,255.9 508.6,378.4 529.4,113.8 550.3,381.4 571.1,221.2 592.0,376.9"/></svg>
